<svg xmlns="http://www.w3.org/2000/svg" viewBox="0 0 512 512">
  <defs>
    <linearGradient id="bg" x1="0" y1="0" x2="1" y2="1">
      <stop offset="0" stop-color="#030308"/><stop offset="1" stop-color="#06203a"/>
    </linearGradient>
    <radialGradient id="glow" cx="30%" cy="20%" r="80%">
      <stop offset="0" stop-color="#00e5ff" stop-opacity=".42"/><stop offset=".48" stop-color="#00e5ff" stop-opacity=".08"/><stop offset="1" stop-color="#00e5ff" stop-opacity="0"/>
    </radialGradient>
    <filter id="softGlow"><feGaussianBlur stdDeviation="6" result="b"/><feMerge><feMergeNode in="b"/><feMergeNode in="SourceGraphic"/></feMerge></filter>
  </defs>
  <rect width="512" height="512" rx="108" fill="url(#bg)"/>
  <rect width="512" height="512" rx="108" fill="url(#glow)"/>
  <path d="M64 128h384M64 256h384M64 384h384M128 64v384M256 64v384M384 64v384" stroke="#00e5ff" stroke-opacity=".09" stroke-width="2"/>
  <rect x="48" y="48" width="416" height="416" rx="78" fill="none" stroke="#00e5ff" stroke-opacity=".72" stroke-width="5"/>
  <path d="M256 92l21 29 35-12 8 34 37 4-7 36 30 21-21 30 21 30-30 21 7 36-37 4-8 34-35-12-21 29-21-29-35 12-8-34-37-4 7-36-30-21 21-30-21-30 30-21-7-36 37-4 8-34 35 12 21-29z" fill="#00e5ff" fill-opacity=".08" stroke="#00e5ff" stroke-opacity=".35" stroke-width="3"/>
  <circle cx="256" cy="256" r="105" fill="none" stroke="#00e5ff" stroke-opacity=".42" stroke-width="4"/>
  <path d="M126 354L388 158" stroke="#00e5ff" stroke-opacity=".44" stroke-width="5"/>
  <text x="256" y="316" text-anchor="middle" font-family="Inter, Arial, sans-serif" font-size="170" font-weight="900" letter-spacing="-18" fill="#effcff" filter="url(#softGlow)">JS</text>
  <circle cx="118" cy="118" r="8" fill="#00e5ff"/><circle cx="394" cy="118" r="8" fill="#00e5ff"/><circle cx="118" cy="394" r="8" fill="#00e5ff"/><circle cx="394" cy="394" r="8" fill="#00e5ff"/>
</svg>